<svg width="72" height="72" viewBox="0 0 72 72" fill="none" xmlns="http://www.w3.org/2000/svg">
<path d="M30.2358 5.47998L29.99 5.62218C29.1768 6.09272 28.4322 6.6505 27.765 7.2798L30.2338 5.49072L32 8V22L24 29.0022V35.5818C24 39.864 26.2818 43.8216 29.9878 45.967L37.5032 50.3178L23.9076 59.007H17.2399L11.9879 55.9666C8.2819 53.8212 6 49.8634 6 45.5812V26.4202C6 22.1372 8.28284 18.1788 11.99 16.0337L29.99 5.61834C30.0716 5.57118 30.1534 5.52506 30.2358 5.47998Z" fill="url(#paint0_radial_4816_393575)"/>
<path d="M30.2358 5.47998L29.99 5.62218C29.1768 6.09272 28.4322 6.6505 27.765 7.2798L30.2338 5.49072L32 8V22L24 29.0022V35.5818C24 39.864 26.2818 43.8216 29.9878 45.967L37.5032 50.3178L23.9076 59.007H17.2399L11.9879 55.9666C8.2819 53.8212 6 49.8634 6 45.5812V26.4202C6 22.1372 8.28284 18.1788 11.99 16.0337L29.99 5.61834C30.0716 5.57118 30.1534 5.52506 30.2358 5.47998Z" fill="url(#paint1_linear_4816_393575)"/>
<path d="M47.9998 27.8335V35.5815C47.9998 39.8637 45.7178 43.8215 42.0118 45.9669L24.0118 56.3871C21.1606 58.0379 17.7992 58.4229 14.71 57.5425L29.9878 66.3869C33.7068 68.5397 38.293 68.5397 42.012 66.3869L60.012 55.9665C63.718 53.8211 65.9998 49.8633 65.9998 45.5813V41.1295L61.9998 36.0003L47.9998 27.8335Z" fill="url(#paint2_radial_4816_393575)"/>
<path d="M47.9998 27.8335V35.5815C47.9998 39.8637 45.7178 43.8215 42.0118 45.9669L24.0118 56.3871C21.1606 58.0379 17.7992 58.4229 14.71 57.5425L29.9878 66.3869C33.7068 68.5397 38.293 68.5397 42.012 66.3869L60.012 55.9665C63.718 53.8211 65.9998 49.8633 65.9998 45.5813V41.1295L61.9998 36.0003L47.9998 27.8335Z" fill="url(#paint3_linear_4816_393575)"/>
<path d="M60.0098 16.0337L42.0098 5.61834C38.292 3.46706 33.7078 3.46706 29.99 5.61834L29.6958 5.78858C26.1622 7.96964 23.9998 11.8307 23.9998 15.9993V29.0844L29.99 25.6184C33.7078 23.467 38.292 23.467 42.0098 25.6184L60.0098 36.0336C63.5958 38.1086 65.849 41.88 65.9926 46.0008C65.9974 45.8614 65.9998 45.7214 65.9998 45.5812V26.4202C65.9998 22.1372 63.717 18.1788 60.0098 16.0337Z" fill="url(#paint4_radial_4816_393575)"/>
<path d="M60.0098 16.0337L42.0098 5.61834C38.292 3.46706 33.7078 3.46706 29.99 5.61834L29.6958 5.78858C26.1622 7.96964 23.9998 11.8307 23.9998 15.9993V29.0844L29.99 25.6184C33.7078 23.467 38.292 23.467 42.0098 25.6184L60.0098 36.0336C63.5958 38.1086 65.849 41.88 65.9926 46.0008C65.9974 45.8614 65.9998 45.7214 65.9998 45.5812V26.4202C65.9998 22.1372 63.717 18.1788 60.0098 16.0337Z" fill="url(#paint5_linear_4816_393575)"/>
<defs>
<radialGradient id="paint0_radial_4816_393575" cx="0" cy="0" r="1" gradientUnits="userSpaceOnUse" gradientTransform="translate(25.3432 20.7828) rotate(110.825) scale(50.4486 89.9418)">
<stop offset="0.06441" stop-color="#AE7FE2"/>
<stop offset="1" stop-color="#0078D4"/>
</radialGradient>
<linearGradient id="paint1_linear_4816_393575" x1="25.8046" y1="56.2122" x2="19.3745" y2="43.8216" gradientUnits="userSpaceOnUse">
<stop stop-color="#114A8B"/>
<stop offset="1" stop-color="#0078D4" stop-opacity="0"/>
</linearGradient>
<radialGradient id="paint2_radial_4816_393575" cx="0" cy="0" r="1" gradientUnits="userSpaceOnUse" gradientTransform="translate(19.2775 55.0665) rotate(-10.5514) scale(47.526 32.4896)">
<stop offset="0.117797" stop-color="#D59DFF"/>
<stop offset="1" stop-color="#5E438F"/>
</radialGradient>
<linearGradient id="paint3_linear_4816_393575" x1="60.7896" y1="37.3203" x2="53.1014" y2="47.9175" gradientUnits="userSpaceOnUse">
<stop stop-color="#493474"/>
<stop offset="1" stop-color="#8C66BA" stop-opacity="0"/>
</linearGradient>
<radialGradient id="paint4_radial_4816_393575" cx="0" cy="0" r="1" gradientUnits="userSpaceOnUse" gradientTransform="translate(64.1102 40.0344) rotate(-161.155) scale(46.5358 75.848)">
<stop offset="0.097966" stop-color="#50E6FF"/>
<stop offset="1" stop-color="#436DCD"/>
</radialGradient>
<linearGradient id="paint5_linear_4816_393575" x1="25.0286" y1="5.53226" x2="36" y2="5.53226" gradientUnits="userSpaceOnUse">
<stop stop-color="#2D3F80"/>
<stop offset="1" stop-color="#436DCD" stop-opacity="0"/>
</linearGradient>
</defs>
</svg>
